# xmcd CD database file
#
# Track frame offsets:
#	150
#	1092
#	14355
#	33700
#	47957
#	65587
#	83480
#	99557
#	115962
#	129602
#	142217
#	156830
#	177217
#	189905
#	202070
#	215470
#
# Disc length: 3099 seconds
#
# Revision: 10
# Processed by: cddbd v1.5.2PL0 Copyright (c) Steve Scherf et al.
# Submitted via: CDex 1.70beta2
#
DISCID=e20c1910
DTITLE=Various Artist - The Best Of Austin City Limits - Country Music's Finest Hour
DYEAR=1996
DGENRE=Country
TTITLE0=Announcer - Intro
TTITLE1=Merle Haggard - Silver Wings
TTITLE2=Mary Chapin Carpenter - I Feel Lucky
TTITLE3=Dwight Yoakam - Guitars Cadillacs
TTITLE4=Alison Kraus And Union Station - Baby Now That I've Found You
TTITLE5=The Mavericks - What A Crying Shame
TTITLE6=Patty Loveless - The Blue Side Of Town
TTITLE7=George Jones - He Stopped Loving Her Today
TTITLE8=Tammy Wynette - Stand By Your Man
TTITLE9=Willie Nelson - Blue Eyes Crying In The Rain
TTITLE10=The Judds - Mama He's Crazy
TTITLE11=Waylon Jennings - I've Always Been Crazy
TTITLE12=Trisha Yearwood - XXX's And OOO's
TTITLE13=K.D. Lang - Three Cigarettes In An Ashtray
TTITLE14=Charlie Daniels Band - Texas
TTITLE15=Asleep At The Wheel - Boogie Back To Texas
EXTD=YEAR: 1996
EXTT0=
EXTT1=
EXTT2=
EXTT3=
EXTT4=
EXTT5=
EXTT6=
EXTT7=
EXTT8=
EXTT9=
EXTT10=
EXTT11=
EXTT12=
EXTT13=
EXTT14=
EXTT15=
PLAYORDER=
